<svg width="49" height="49" viewBox="0 0 49 49" fill="none" xmlns="http://www.w3.org/2000/svg">
<path d="M22.4583 22.4583L12.2499 12.25M10.2083 15.3125L15.3124 10.2083L9.18743 7.14585L7.14576 9.18751L10.2083 15.3125ZM40.7822 18.324C41.7624 17.3446 42.4368 16.1014 42.7232 14.7457C43.0095 13.39 42.8956 11.9802 42.3951 10.6881L39.4919 13.5914H35.4086V9.50806L38.3118 6.60481C37.0196 6.10325 35.6094 5.98835 34.2531 6.27409C32.8967 6.55983 31.6528 7.23389 30.6727 8.21413C29.6927 9.19438 29.0189 10.4385 28.7335 11.7949C28.448 13.1513 28.5633 14.5615 29.0651 15.8536L15.8555 29.0652C14.5634 28.5633 13.1533 28.4481 11.7969 28.7336C10.4404 29.019 9.19633 29.6928 8.21608 30.6728C7.23584 31.6528 6.56179 32.8968 6.27604 34.2532C5.9903 35.6095 6.10521 37.0197 6.60676 38.3119L9.50797 35.4086H13.5913V39.492L10.6881 42.3952C11.9799 42.8968 13.3898 43.0118 14.7459 42.7264C16.102 42.441 17.3458 41.7675 18.326 40.7878C19.3061 39.8081 19.9802 38.5645 20.2662 37.2085C20.5522 35.8525 20.4378 34.4426 19.9368 33.1506L33.1505 19.9369C34.442 20.4364 35.8509 20.55 37.2058 20.2636C38.5607 19.9773 39.8032 19.3034 40.7822 18.324Z" stroke="black" stroke-width="1.5" stroke-linecap="round" stroke-linejoin="round"/>
<path d="M24.0854 29.6042L35.5269 41.0457C35.783 41.3022 36.087 41.5057 36.4218 41.6445C36.7565 41.7834 37.1154 41.8548 37.4778 41.8548C37.8402 41.8548 38.199 41.7834 38.5337 41.6445C38.8685 41.5057 39.1726 41.3022 39.4286 41.0457L41.0456 39.4287C41.3021 39.1727 41.5056 38.8686 41.6444 38.5339C41.7832 38.1991 41.8547 37.8403 41.8547 37.4779C41.8547 37.1155 41.7832 36.7566 41.6444 36.4219C41.5056 36.0872 41.3021 35.7831 41.0456 35.5271L29.6041 24.0856" stroke="black" stroke-width="1.5" stroke-linecap="round" stroke-linejoin="round"/>
</svg>
