<svg width="33" height="33" viewBox="0 0 33 33" fill="none" xmlns="http://www.w3.org/2000/svg">
<path d="M11 28.875V26.125H5.5C4.74375 26.125 4.09658 25.856 3.5585 25.3179C3.02042 24.7798 2.75092 24.1322 2.75 23.375V6.875C2.75 6.11875 3.0195 5.47158 3.5585 4.9335C4.0975 4.39542 4.74467 4.12592 5.5 4.125H27.5C28.2563 4.125 28.9039 4.3945 29.4429 4.9335C29.9819 5.4725 30.2509 6.11967 30.25 6.875V23.375C30.25 24.1313 29.981 24.7789 29.4429 25.3179C28.9048 25.8569 28.2572 26.1259 27.5 26.125H22V28.875H11ZM5.5 23.375H27.5V6.875H5.5V23.375Z" fill="black"/>
</svg>
