<svg width="33" height="30" viewBox="0 0 33 30" fill="none" xmlns="http://www.w3.org/2000/svg">
<path d="M11.8451 29.9878L10.2317 29.8968C4.64797 29.588 0.951745 28.7362 0.178688 27.5773C-0.0445303 27.2441 -0.0609435 26.7402 0.142579 26.4704C0.331329 26.2201 0.761353 26.0152 1.36371 25.8933L1.87744 25.7893L2.48965 25.9876C5.06323 26.828 7.25437 26.945 10.491 26.4151C11.8369 26.1957 12.5591 25.9437 13.3403 25.4187C13.6407 25.2172 13.7671 25.1716 14.0182 25.1716C15.0358 25.1684 16.6131 24.8986 17.4092 24.5914C19.6939 23.7071 21.7668 21.3031 22.2986 18.9186C22.5596 17.7531 22.4168 15.944 21.9523 14.5412L21.7389 13.8959L21.7849 12.6817C21.8226 11.6967 21.862 11.3521 21.9917 10.8563C22.4677 9.05536 23.6182 7.80376 25.2037 7.36977C25.8176 7.20235 27.1241 7.2186 27.8118 7.40228C28.8125 7.65756 29.7201 8.1878 30.4297 8.93182C31.2585 9.82257 31.5901 10.5979 31.636 11.7568C31.6705 12.6508 31.5802 13.0718 31.1715 13.8959C30.8252 14.5949 30.2819 15.2499 29.6796 15.6953C29.4334 15.879 29.1839 16.0692 29.1281 16.1179C29.0428 16.1927 29.0181 16.43 28.9853 17.4784C28.9623 18.1774 28.8983 19.0811 28.8442 19.4858C28.0924 24.9376 25.1775 28.2974 20.1337 29.5213C18.4547 29.9277 17.8851 29.9813 14.9094 29.996C13.4191 30.0041 12.0404 29.9992 11.8451 29.9878ZM5.33404 25.3114L4.59545 25.1977L4.10306 24.6743C1.61812 22.0524 0.680929 18.1692 1.75599 14.9541C2.81627 11.7796 5.56382 9.44384 9.13531 8.67988C10.0495 8.4832 12.2735 8.46369 13.1352 8.64249C14.0634 8.83044 14.9632 9.13639 15.8122 9.55274C18.8125 11.0221 20.7065 13.6082 21.0726 16.7388C21.2547 18.2911 20.8592 19.6533 19.8202 21.0479C18.6516 22.6181 17.1646 23.5267 15.4199 23.7364L15.0375 23.7819L15.4757 23.3316C16.2553 22.527 16.4539 21.82 16.4539 19.8369C16.4539 18.7268 16.4359 18.4862 16.3111 17.9937C16.0124 16.8217 15.5299 15.9798 14.724 15.2223C13.6686 14.2291 12.3605 13.722 10.8685 13.7269C8.74304 13.735 7.26422 15.0728 7.26422 16.9875C7.26422 17.6345 7.37747 18.1172 7.65814 18.6666C7.87971 19.1039 8.39016 19.6744 8.77423 19.9166C9.37823 20.2953 10.3893 20.4855 10.7356 20.2823C10.8222 20.2364 10.8969 20.1713 10.9538 20.092C11.0107 20.0127 11.0483 19.9215 11.0635 19.8254C11.0788 19.7293 11.0714 19.631 11.0418 19.5382C11.0122 19.4455 10.9614 19.3608 10.8932 19.2908C10.7454 19.1266 10.647 19.086 10.2957 19.0405C9.7426 18.9706 9.57847 18.9007 9.242 18.5935C8.81526 18.205 8.59368 17.667 8.5904 17.0265C8.58712 16.5893 8.61338 16.4609 8.77094 16.1439C8.98924 15.7051 9.4209 15.3361 9.92478 15.1638C10.4615 14.9785 11.5333 15.0077 12.1996 15.2255C13.6013 15.6823 14.5894 16.7177 14.9882 18.1465C15.0769 18.4651 15.1031 18.7983 15.1031 19.6142C15.1031 20.5408 15.0851 20.7244 14.9521 21.1438C14.7831 21.6753 14.4433 22.3759 14.1512 22.8001C13.667 23.4974 12.7511 24.3069 12.0454 24.6596C10.9112 25.2253 7.15425 25.591 5.3324 25.3098L5.33404 25.3114ZM28.3157 6.18644L27.9152 6.05966L28.145 5.40948C29.0263 2.89979 30.3345 1.31173 31.5211 1.31173C32.4518 1.31173 33.233 2.2675 32.9359 3.04608C32.8621 3.24114 32.5355 3.60686 32.3287 3.72715C32.2564 3.76778 31.8199 3.81492 31.3488 3.8328C30.5331 3.86368 30.4888 3.87181 30.2196 4.05874C29.8568 4.30906 29.394 4.99337 29.0871 5.73294C28.9541 6.05803 28.8146 6.31973 28.7785 6.31811C28.6222 6.28172 28.4677 6.23778 28.3157 6.18644ZM24.7294 6.08892C24.6178 5.90199 24.521 4.72842 24.5226 3.57761C24.5242 2.53895 24.5472 2.17485 24.6375 1.82212C24.9559 0.578658 25.5057 0 26.3691 0C27.3342 0 27.8988 0.682687 27.6526 1.55555C27.5344 1.97492 27.3522 2.14884 26.6826 2.4788C26.1705 2.73075 26.0359 2.8299 25.8685 3.07859C25.5796 3.50446 25.4942 4.03761 25.5402 5.11528L25.578 5.98977L25.3071 6.03365C25.1594 6.05641 24.9756 6.09054 24.8985 6.11005C24.8213 6.12955 24.7475 6.11818 24.7294 6.08892Z" fill="black"/>
</svg>
